<?xml version="1.0" standalone="no"?>
<!DOCTYPE svg PUBLIC "-//W3C//DTD SVG 20010904//EN"
 "http://www.w3.org/TR/2001/REC-SVG-20010904/DTD/svg10.dtd">
<svg version="1.0" xmlns="http://www.w3.org/2000/svg"
 width="1280.000000pt" height="640.000000pt" viewBox="0 0 1280.000000 640.000000"
 preserveAspectRatio="xMidYMid meet">
<metadata>
Created by potrace 1.15, written by Peter Selinger 2001-2017
</metadata>
<g transform="translate(0.000000,640.000000) scale(0.100000,-0.100000)"
fill="#ff9800" stroke="none">
<path d="M2170 6125 c0 -61 130 -1498 136 -1504 8 -8 169 62 379 164 331 162
571 335 691 498 117 158 114 320 -8 453 -161 174 -578 325 -1102 398 l-96 13
0 -22z"/>
<path d="M6050 5915 c-366 -67 -956 -176 -1313 -241 l-647 -118 -492 -776
c-270 -426 -492 -777 -494 -779 -2 -2 -54 17 -116 42 -340 137 -685 176 -1053
122 -405 -60 -801 -204 -1105 -402 -337 -220 -618 -526 -782 -852 l-48 -95 0
-130 0 -130 49 79 c155 251 424 492 721 644 314 160 590 227 985 238 341 9
552 -25 833 -135 65 -26 91 -40 87 -50 -3 -8 -40 -70 -83 -138 -71 -114 -79
-124 -102 -118 -249 60 -425 78 -679 71 -259 -7 -444 -40 -676 -118 -282 -96
-591 -294 -764 -489 -361 -409 -438 -920 -206 -1374 66 -130 146 -237 265
-356 172 -171 376 -302 622 -400 266 -105 532 -154 833 -153 261 1 479 34 715
108 83 27 294 115 288 121 -2 1 -53 -12 -113 -31 -170 -51 -333 -76 -545 -82
-449 -13 -853 101 -1204 340 -111 76 -283 245 -353 347 -405 595 -211 1301
469 1708 313 187 734 287 1118 267 74 -4 154 -10 177 -13 l41 -7 -438 -690
c-241 -379 -437 -691 -435 -693 1 -1 101 7 221 19 l219 22 402 626 c220 344
405 625 410 625 4 -1 19 -5 33 -8 24 -6 24 -6 -3 9 -17 10 -25 21 -21 28 27
46 127 197 131 197 26 0 274 -237 338 -323 18 -24 34 -36 43 -32 27 10 652
400 652 406 0 12 -88 124 -170 217 -93 105 -255 254 -364 333 -41 30 -75 57
-75 61 -1 7 963 1516 977 1530 4 4 165 34 357 68 193 33 528 92 745 130 217
38 757 132 1200 210 874 152 870 152 855 156 -30 9 -791 134 -813 133 -15 0
-326 -56 -692 -124z"/>
<path d="M4822 5115 c-186 -42 -296 -168 -357 -409 -28 -111 -48 -255 -70
-516 -19 -228 -41 -400 -60 -482 -8 -34 -13 -63 -12 -64 1 -1 506 -7 1122 -13
616 -6 1187 -14 1269 -18 l148 -6 -11 22 c-10 19 -8 25 16 49 15 15 87 63 158
106 216 131 295 205 311 293 21 111 -94 229 -342 352 -133 66 -255 113 -619
241 -137 49 -461 163 -719 255 -259 91 -499 172 -535 180 -107 22 -228 26
-299 10z"/>
<path d="M10370 4356 c-587 -196 -955 -303 -1260 -365 -267 -55 -360 -65 -575
-65 -174 0 -212 3 -290 22 -213 53 -364 167 -442 331 -21 44 -41 79 -45 78 -3
-1 -132 -154 -287 -341 l-281 -339 0 -73 c0 -60 3 -75 18 -83 89 -47 1352
-271 1528 -271 109 0 742 104 2014 331 665 118 1934 349 1937 352 1 2 7 34 13
72 15 96 15 297 0 373 l-13 62 -1036 -1 -1036 -1 -245 -82z"/>
<path d="M10730 3134 c-272 -26 -511 -82 -721 -170 -60 -26 -108 -48 -107 -50
2 -2 39 8 81 21 106 34 299 71 431 84 425 42 874 -43 1225 -230 357 -190 588
-452 688 -776 25 -81 27 -102 27 -263 1 -205 -13 -269 -94 -436 -128 -263
-349 -472 -665 -628 -273 -135 -494 -193 -819 -216 -272 -19 -619 24 -846 105
-75 27 -31 -1 65 -40 711 -293 1583 -222 2184 179 233 156 397 337 507 561 81
165 107 275 108 460 1 247 -50 417 -190 627 -320 481 -981 783 -1699 776 -77
-1 -156 -3 -175 -4z"/>
</g>
</svg>
